<svg xmlns="http://www.w3.org/2000/svg" viewBox="0 0 32 32" role="img" aria-label="Learn Orthodoxy icon, Coptic cross">
<title>Learn Orthodoxy icon, Coptic cross</title>
<ellipse cx="17" cy="15" rx="7.5" ry="10.5" fill="#F8F3EA"/>
<path fill="#E4AE48" fill-rule="evenodd" d="M4 15a13 14 0 1 0 26 0a13 14 0 1 0 -26 0ZM10 15a7 10 0 1 1 14 0a7 10 0 1 1 -14 0Z"/>
<path fill="#E4AE48" d="M6.3 20.6Q7.1 27.2 0.8 31.2Q9.2 31.4 14.4 28.2Z"/>
<g fill="#4B3A22"><rect x="16" y="9" width="2" height="12"/><rect x="11" y="14" width="12" height="2"/><rect x="15" y="9" width="4" height="1"/><rect x="15" y="20" width="4" height="1"/><rect x="11" y="13" width="1" height="4"/><rect x="22" y="13" width="1" height="4"/></g>
</svg>
